<svg width="33" height="33" viewBox="0 0 33 33" fill="none" xmlns="http://www.w3.org/2000/svg">
<rect y="16.5" width="23.3345" height="23.3345" rx="5" transform="rotate(-45 0 16.5)" fill="url(#paint0_linear_657_23)"/>
<rect y="16.5" width="23.3345" height="23.3345" rx="5" transform="rotate(-45 0 16.5)" fill="url(#paint1_linear_657_23)"/>
<path fill-rule="evenodd" clip-rule="evenodd" d="M22.0722 18.1307C22.781 18.6458 23.8557 18.2361 25.1198 17.3508L23.6937 15.9246C22.8898 15.4104 22.0696 15.3221 21.2014 15.6521C21.1526 15.0462 20.9992 14.4625 20.7403 13.9277L21.5751 13.093C22.1382 12.5299 22.1382 11.6077 21.5751 11.0446C21.012 10.4816 20.0898 10.4816 19.5268 11.0446L18.692 11.8794C18.1546 11.618 17.5667 11.4654 16.9582 11.4175C17.2865 10.551 17.1982 9.7308 16.6848 8.92946L15.257 7.50163C14.3725 8.76491 13.9628 9.84135 14.4771 10.5493L15.4361 11.5083C14.2242 11.7448 13.0167 12.3696 12.0216 13.3647C11.4226 13.9637 10.9589 14.6382 10.6324 15.3453C9.39309 15.3847 8.35607 15.8801 7.49389 16.8005C7.40475 16.8948 7.31905 16.9942 7.2342 17.0979C7.00623 17.3773 7.01308 17.3499 7.22049 17.6773C7.70643 18.4426 8.6089 18.8634 10.1327 18.7709C10.293 19.6973 10.7078 20.5527 11.3874 21.2323C12.0799 21.9248 12.955 22.3422 13.9011 22.4947C13.8086 24.0186 14.2371 24.927 15.0016 25.4138C15.329 25.6212 15.3015 25.6281 15.5809 25.4001C15.6846 25.3153 15.7832 25.2287 15.8783 25.1404C16.8031 24.2722 17.2847 23.2146 17.319 21.9651C18.0098 21.6394 18.668 21.1817 19.2542 20.5955C20.2535 19.5962 20.8783 18.3852 21.1132 17.1682L22.0739 18.129L22.0722 18.1307ZM17.0756 15.5475C17.8675 16.3395 17.8675 17.6233 17.0748 18.4161C16.282 19.2088 14.9982 19.2088 14.2062 18.4169C13.4143 17.625 13.4135 16.3403 14.2062 15.5475C14.999 14.7548 16.2829 14.7548 17.0756 15.5475ZM19.058 13.5652C19.5576 14.0649 19.879 14.6828 20.029 15.3539C19.2568 15.7849 18.2626 15.6718 17.607 15.0162C16.9505 14.3597 16.8382 13.3664 17.2693 12.5942C17.9412 12.7433 18.5583 13.0655 19.058 13.5652ZM19.9896 17.3748C19.7693 18.2704 19.2851 19.1523 18.548 19.8893C18.3603 20.077 18.1632 20.2484 17.9592 20.4027C17.6078 19.7959 17.5813 19.022 17.9575 18.3715C18.3809 17.6344 19.1968 17.2659 19.9896 17.3748ZM16.2923 21.2589C14.927 21.6745 13.4992 21.4757 12.4707 20.6238C12.8933 19.7813 13.8626 19.3228 14.8079 19.5756C15.6204 19.7933 16.1843 20.4755 16.2923 21.2589ZM11.3034 18.812C10.9795 17.655 11.1877 16.3137 11.8974 15.1413C12.457 15.5021 12.8281 16.132 12.8281 16.8468C12.8281 17.793 12.1793 18.5875 11.3034 18.812ZM13.0638 13.7709C14.0734 12.9087 15.2938 12.475 16.4431 12.4965C16.3523 13.3004 15.7806 14.0057 14.9519 14.2277C14.2611 14.4128 13.5566 14.2174 13.0638 13.7709Z" fill="#D9D9D9"/>
<defs>
<linearGradient id="paint0_linear_657_23" x1="0.13862" y1="16.3614" x2="16.711" y2="20.3244" gradientUnits="userSpaceOnUse">
<stop stop-color="#17FFD5"/>
<stop offset="1" stop-color="#2896FC" stop-opacity="0"/>
</linearGradient>
<linearGradient id="paint1_linear_657_23" x1="28.7801" y1="29.8715" x2="4.82213" y2="32.5735" gradientUnits="userSpaceOnUse">
<stop stop-color="#FFE1A8"/>
<stop offset="1" stop-color="#FAB270" stop-opacity="0.27"/>
</linearGradient>
</defs>
</svg>
